<?xml version="1.0" standalone="no"?>
<!DOCTYPE svg PUBLIC "-//W3C//DTD SVG 20010904//EN"
 "http://www.w3.org/TR/2001/REC-SVG-20010904/DTD/svg10.dtd">
<svg version="1.0" xmlns="http://www.w3.org/2000/svg"
 width="300.000000pt" height="300.000000pt" viewBox="0 0 300.000000 300.000000"
 preserveAspectRatio="xMidYMid meet">
<metadata>
Created by potrace 1.11, written by Peter Selinger 2001-2013
</metadata>
<g transform="translate(0.000000,300.000000) scale(0.100000,-0.100000)"
fill="#000000" stroke="none">
<path d="M0 1500 l0 -1500 1500 0 1500 0 0 1500 0 1500 -1500 0 -1500 0 0
-1500z m1638 734 c236 -47 439 -227 517 -457 l29 -84 60 -12 c206 -42 366
-238 366 -446 0 -72 -26 -170 -60 -229 -61 -108 -181 -198 -300 -225 -29 -7
-290 -11 -710 -11 -731 0 -720 -1 -846 61 -123 61 -229 184 -274 318 -87 261
32 546 279 669 45 23 105 44 132 48 47 6 51 9 94 74 155 233 438 350 713 294z"/>
</g>
</svg>
