<svg version="1" xmlns="http://www.w3.org/2000/svg" width="341.333" height="341.333" viewBox="0 0 256.000000 256.000000"><path d="M116.5 43c-9.2 1.5-15.5 3.6-25.4 8.5C80.3 57 67.7 68.3 61 78.5c-3 4.6-5 6.7-6.9 7.1C33.9 90 19.2 99.9 9.6 115.4c-6.5 10.5-8.8 18-9.4 31.1-.5 13.2.9 20.2 6.8 32 9.2 18.7 27.2 31.4 48.5 34.5 5.6.8 30.4 1 82.5.8 73.9-.3 74.6-.3 81-2.5 32.8-11.2 47-49.1 29.5-78.8-7-12-21.3-22-35.4-24.8l-6.4-1.3-1.7-6c-3.8-14-11-25.4-23-36.8-6.5-6-10.4-8.7-18.4-12.6-5.5-2.7-13-5.6-16.6-6.5-8.4-1.9-22.9-2.6-30.5-1.5z"/></svg>